<?xml version="1.0" encoding="UTF-8"?><svg id="Layer_2" xmlns="http://www.w3.org/2000/svg" viewBox="0 0 1148.2 437.29"><defs><style>.cls-1{fill:#139754;}</style></defs><g id="Layer_1-2"><path class="cls-1" d="m197.84,425.66l54.96-43.08c28.33-22.21,64.79-31.27,100.22-24.91l167.87,30.13c14.09,2.53,28.46,3.14,42.72,1.8l230.31-21.52c11.13-1.04,21.94-4.27,31.8-9.52l297.75-158.18c25.51-13.55,32.65-46.83,14.93-69.65l-.83-1.07c-12.92-16.64-35.19-22.84-54.84-15.25-69.18,26.74-222.78,86.11-222.78,86.11-27.91,10.79-58.49,12.56-87.46,5.07l-262.58-44.3c-21.38-5.53-19.39-36.51,2.52-39.26l227.21-17.54c22.57-2.15,39.8-21.1,39.8-43.77h0c0-23.35-18.24-42.62-41.55-43.91L482.94.31c-63.31-2.8-126.01,13.48-179.95,46.74L22.76,223.71c-25.69,16.2-30.48,51.69-10,74.12l111.1,121.68c19.26,21.09,51.51,23.77,73.99,6.16Z"/></g></svg>