<?xml version="1.0" encoding="UTF-8"?><svg id="Layer_2" xmlns="http://www.w3.org/2000/svg" viewBox="0 0 71.67 18.53"><defs><style>.cls-1{fill:#fff;}</style></defs><g id="Layer_1-2"><path class="cls-1" d="m13.79,12.77c0-.88-.27-1.12-1-1.12h-1.03c-.12,0-.17-.05-.17-.15v-.61c0-.15.03-.2.15-.2.34,0,1.44.07,3.1.07,1.76,0,2.54-.07,2.88-.07.17,0,.2.07.2.17v.59c0,.1-.02.2-.17.2h-.95c-.44,0-.76.17-.76.93v3.22c0,.34.1.59.1.78s-.15.29-.39.39c-1.98,1-3.93,1.56-6.67,1.56-2.17,0-5.15-.81-6.84-2.78-1.49-1.69-2.25-3.76-2.25-6.72,0-2.22.95-4.59,2.76-6.2,1.73-1.49,3.93-2.32,6.86-2.32,2.1,0,3.98.78,4.81,1.42.27.22.42.17.56-.02l.37-.44c.1-.1.2-.22.34-.22.17,0,.22.12.22.29l.07,4.66c0,.12-.02.22-.12.22l-.44.05c-.1,0-.17-.07-.2-.2-.19-.68-.61-1.83-1.46-2.88-.73-.9-2.25-2-4.44-2-1.68,0-3.2.41-4.66,1.98-1.32,1.39-2.15,3.42-2.15,5.62,0,2.88.81,5.4,2.32,6.84,1.22,1.17,2.71,1.73,4.3,1.73,1.95,0,3.15-.34,4-.83.56-.34.66-.88.66-2.15v-1.81Z"/><path class="cls-1" d="m25.79,1.76h-.61c-.78,0-2.91,0-3.86.29-1.1.34-1.83,2.05-2.17,2.83-.05.12-.12.15-.24.12l-.44-.12c-.07-.02-.15-.05-.1-.19.24-.88,1.1-4.03,1.15-4.3.05-.32.15-.39.24-.39.12,0,.2.02.29.1l.32.22c.44.32.68.39,1.39.42,1.29.05,2.32.15,4.61.15h1.17c2.66,0,3.71-.1,4.91-.15.54-.02.85-.1,1.27-.34l.46-.29c.12-.07.2-.1.29-.1.12,0,.17.07.22.39.05.29.51,3.32.71,4.39.02.12-.02.17-.15.19l-.39.1c-.1.03-.12,0-.2-.17-.19-.46-.93-2.34-1.73-2.73-.73-.37-3.03-.41-4.22-.41h-.68v6.96c0,.34,0,7.18.02,7.59.05.61.24.98.83.98h1.54c.22,0,.24.07.24.24v.51c0,.12-.02.2-.24.2-.24,0-1.03-.07-3.42-.07s-3.37.07-3.71.07c-.2,0-.22-.1-.22-.24v-.46c0-.17.02-.24.17-.24h1.66c.49,0,.78-.29.81-.59.07-.71.07-8.2.07-8.67V1.76Z"/><path class="cls-1" d="m39.56,16.29c-1.76-1.66-2.61-4.49-2.61-6.84s.73-4.61,2.49-6.47c1.25-1.32,3.44-2.47,6.1-2.47,2.22,0,4.05.83,4.93,1.34.32.2.44.17.49,0l.2-.71c.05-.15.1-.15.32-.15s.27.05.27.39c0,.46.49,4.05.61,4.74.02.12,0,.22-.1.24l-.37.1c-.12.02-.17,0-.24-.2-.34-.81-.88-1.98-1.9-3.03-1.03-1.05-2.32-1.88-4.25-1.88-4.37,0-6.13,3.88-6.1,7.45,0,1.42.44,4.18,2.34,6.27,1.66,1.86,3.05,2.05,4.69,2.05,2.76,0,4.91-1.51,6.03-3.1.07-.12.12-.15.2-.07l.32.24c.07.05.12.1.05.22-1.46,2.12-3.83,4.1-7.28,4.1-2.88,0-4.71-.9-6.18-2.25Z"/><path class="cls-1" d="m57.73,7.06c0-1.81,0-3.37-.03-4.08-.02-.81-.32-1.22-.93-1.22h-.98c-.12,0-.15-.07-.15-.17v-.61c0-.12.02-.17.15-.17.22,0,.98.07,3.03.07,1.37,0,3.64-.07,4.08-.07,2.03,0,3.64.61,4.57,1.49.81.78,1.27,1.88,1.27,2.78,0,3.05-1.39,4.2-4.52,4.88v.05c.59.22.93.66,1.12.93.29.32,2.03,2.81,2.22,3.13.12.24,1.68,2.47,2.15,2.81.51.37,1.07.41,1.76.41.17,0,.2.1.2.2v.54c0,.15-.02.22-.2.22-.2,0-.83-.07-1.9-.07-.71,0-1.61.05-1.98.07-.27-.24-.81-1.07-1.03-1.39-.2-.29-1.51-2.61-1.64-2.81-.1-.17-1.27-1.93-1.56-2.27-.63-.76-1.22-1.42-2.64-1.42-.22,0-.46,0-.8.07v1.37c0,1.44.02,4.17.05,4.54.05.51.24.95.61.95h1.54c.17,0,.19.07.19.2v.54c0,.17-.02.22-.27.22-.27,0-.88-.07-3.2-.07s-2.78.07-3.05.07c-.19,0-.19-.07-.19-.2v-.56c0-.12,0-.2.12-.2h1c.54,0,.95-.17.95-.83.05-2.42.05-4.71.05-7.03v-2.37Zm2.2,2.42c.37.07.63.1,1.1.1,4.44,0,5.3-3.05,5.3-4.08,0-1.12-.51-2.2-1.22-2.78-.95-.76-2.03-1.12-4.05-1.12-.29,0-.61.05-.83.2-.17.12-.29.39-.29.78v6.91Z"/></g></svg>