<?xml version="1.0" encoding="UTF-8"?><svg id="Layer_2" xmlns="http://www.w3.org/2000/svg" viewBox="0 0 415.53 85.46"><defs><style>.cls-1{fill:#231f20;}</style></defs><g id="Layer_1-2"><path class="cls-1" d="m32.54,8.67c1.74,0,2.58.44,2.58.86,0,6.83-3.24,11.28-4.82,11.66-.5-.37-1.65-9.06-6.34-9.06-.02,0-.05,0-.07,0,.07.63.29,1.94.29,3.38,0,8.97-6.48,22.59-6.48,23.27,0,15.32,5.04,18.93,5.54,19.32-1.01,1.27-5.47,4.23-9.15,5.39-.22,0-1.08-.38-1.3-.53-.58-.97-1.15-2.65-1.15-6.47,0-9.89,5.26-21.9,5.26-22.53,0-11.74-2.3-16.15-2.81-17-1.73,4-4.68,9.91-8.64,11.33-.64.23-1.13.33-1.49.33-.76,0-.96-.43-.96-.87,0-5.69,2.45-11.06,4.1-12.28.39.26,1.43,1.62,3.73,1.62.66,0,1.43-.11,2.32-.4,4.61-1.47,10.23-6.31,15.84-7.58,1.44-.32,2.62-.44,3.54-.44m0-3h0c-1.24,0-2.64.17-4.19.51-3.63.82-7.1,2.84-10.17,4.63-2.18,1.27-4.24,2.47-5.94,3.02-.53.17-1,.26-1.4.26-.76,0-1.09-.29-1.47-.64-.17-.15-.35-.32-.6-.48l-1.75-1.16-1.69,1.25C2.75,14.95,0,21.31,0,27.75c0,2.24,1.67,3.87,3.96,3.87.74,0,1.56-.17,2.5-.51,2.79-1,5.05-3.42,6.84-6.17.33,2.18.57,5.01.58,8.6-.09.26-.24.67-.37,1.04-1.46,4.03-4.88,13.47-4.88,21.9,0,3.71.49,6.17,1.57,8l.34.57.55.37s1.62,1.01,2.91,1.04h.5s.48-.14.48-.14c4.08-1.3,9.13-4.55,10.59-6.38l1.89-2.38-2.4-1.86c-.48-.37-4.29-3.66-4.38-16.5.13-.34.35-.89.56-1.4,1.43-3.56,4.42-10.98,5.51-17.72.06.19.12.39.18.6.38,1.33.64,2.21,1.56,2.9l1.12.84,1.36-.33c3.44-.82,7.13-6.88,7.13-14.57,0-1.51-.96-2.77-2.56-3.39-.82-.31-1.83-.47-3.02-.47h0Z"/><path class="cls-1" d="m60.43,4.57c3.98,0,6.04,1.16,6.22,1.32h0s1.44,2.55,1.37,7.31c-.14,12.36-9.36,19.32-14.83,22.4,4.39,2.29,9.94,10.66,13.83,11.8,0,1.8-3.6,6.55-6.26,6.83-4.75-.74-8.79-14.97-12.89-16.93-.07-.42,0-.94.14-1.32,1.44-.89,12.89-4.09,12.89-18.85,0-4.03-.79-6.47-1.44-7.84-2.95,1.28-11.16,12.6-15.27,20.11-.79,2.01-1.3,3.32-1.3,3.46,0,15.32,5.04,19.53,5.54,19.97-1.01,1.15-5.47,3.59-9.14,4.31-.22-.03-1.08-.51-1.3-.68-.58-1.04-1.15-2.79-1.15-6.61,0-9.88,5.26-21.26,5.26-21.89,0-12.25-2.95-16.81-3.38-17.51,1.8-1.71,4.75-3.72,9.43-4.45.22.04,1.08.56,1.3.74,0,0,.22.69.22,2.7,0,2.95-1.08,7.14-2.38,11.16,5.4-9.64,10.44-15.88,10.66-15.91.9-.1,1.73-.14,2.49-.14m0-3c-.91,0-1.86.05-2.82.16-1.17.13-1.64.18-5.11,5.04-.06-.43-.13-.72-.19-.9l-.26-.83-.66-.57s-1.49-1.2-2.72-1.41l-.49-.09-.49.08c-4.39.68-8.11,2.44-11.04,5.24l-1.76,1.68,1.27,2.07h0s.02.04.02.04c.67,1.09,2.85,5.39,2.91,15.47-.09.25-.23.62-.36.96-1.47,3.87-4.9,12.92-4.9,21.36,0,3.67.47,6.16,1.53,8.07l.29.52.46.37s1.51,1.13,2.73,1.31l.51.07.5-.1c4.22-.83,9.29-3.52,10.83-5.28l1.96-2.24-2.23-1.98c-2.38-2.09-3.51-6.67-4.05-10.68l.19.09c1.02.53,3.07,4.33,4.29,6.6,2.76,5.12,5.37,9.96,9.43,10.59l.39.06.39-.04c4.06-.43,8.95-6.39,8.95-9.81v-2.24s-2.15-.64-2.15-.64c-1.29-.38-3.92-3.12-5.84-5.12-1.18-1.23-2.38-2.49-3.6-3.6,5.75-4.15,12.46-11.38,12.59-22.57.08-5.29-1.5-8.71-2.23-9.45l-.08-.08-.08-.07c-.82-.71-3.58-2.07-8.2-2.07h0Zm-13.52,29.11c3.21-5.84,7.79-12.21,10.88-15.82.07.68.1,1.43.1,2.27,0,11.12-7.45,14.45-10.26,15.7-.51.23-.87.39-1.21.59l-.53.33c0-.17,0-.32,0-.45.14-.38.43-1.14,1.01-2.63h0Z"/><path class="cls-1" d="m90.93,3c.07,0,.13,0,.2,0,6.84.05,9.07,2.13,9.07,2.55,0,5.9-2.88,10.5-3.96,10.91-.58-.92-3.1-8.27-11.74-10.9-.07,11.93-6.84,22.99-6.84,23.66,0,13.1,3.67,18.87,5.54,21.29,8.57-2.66,10.73-10.45,11.31-11.4,1.66,1.03,3.46,5.69,3.46,9.94,0,.67-1.44,3.57-9.7,3.57h-.02c-3.38.03-6.11.04-8.28.04-5.08,0-7.08-.06-7.13-.09-.29-.2-1.22-2.81-1.22-7.2,0-9.88,5.26-20.52,5.26-21.15,0-12.24-2.95-17.22-3.38-17.98,1.79-1.29,6.92-3.23,17.44-3.23m.49,18.58c.22.22,1.58,1.53,1.58,5.49,0,3.31-1.01,5.46-1.22,5.61-7.34-.04-10.8-4.05-10.8-5.15,5.62-1.38,9.94-5.51,10.44-5.95m-.49-21.58c-12.56,0-17.61,2.65-19.2,3.79l-2.19,1.57,1.33,2.34.03.05c.88,1.55,2.9,6.17,2.97,16-.09.23-.22.56-.34.86-1.47,3.68-4.91,12.28-4.91,20.74,0,1.32.12,7.99,2.5,9.66l.16.11.17.09c.77.41.82.43,8.53.43,2.42,0,5.21-.01,8.3-.04,4.05,0,7.23-.65,9.45-1.94,2.03-1.18,3.25-2.91,3.25-4.63,0-4.54-1.86-10.61-4.87-12.48l-2.47-1.54c1.73-1.41,2.37-5.48,2.37-7.96,0-4.26-1.34-6.48-2.46-7.6l-1.97-1.96-2.12,1.8s-.11.1-.2.18c-1.82,1.63-3.77,2.96-5.68,3.9,1.46-3.61,2.99-8.28,3.62-13.34,3.73,2.31,5.34,5.67,6.04,7.13.17.36.3.62.46.88l1.31,2.1,2.31-.88c2.78-1.06,5.89-7.16,5.89-13.71,0-3.26-4.84-5.49-12.05-5.55h-.22Zm-6.58,46.84c-2.13-3.64-3.34-8.59-3.62-14.76.52.43.99.75,1.27.93,1.86,1.2,5.07,2.63,9.76,2.65h.91s.69-.45.69-.45l-1.42,2.34c-.19.31-.33.64-.52,1.1-.79,1.87-2.52,5.95-7.08,8.19h0Z"/><path class="cls-1" d="m116.07,4.25c1.88,0,4.02.09,6.45.3,6.84.63,9.07,2.86,9.07,3.28,0,5.9-2.88,10.28-3.96,10.6-.58-.97-3.1-8.5-11.74-11.9-.07,11.93-6.84,22.36-6.84,23.03,0,13.1,3.67,19.22,5.54,21.81,8.57-1.89,10.73-9.53,11.31-10.43,1.66,1.17,3.46,5.96,3.46,10.21,0,.59-1.14,2.88-7.2,2.88-.76,0-1.6-.04-2.52-.11-11.3-.9-15.34-1.45-15.41-1.48-.29-.23-1.22-2.93-1.22-7.32,0-9.88,5.26-20,5.26-20.63,0-12.24-2.95-17.51-3.38-18.31,1.39-.87,4.8-1.91,11.19-1.91m6.74,18.91c.22.23,1.58,1.66,1.58,5.62,0,3.31-1.01,5.38-1.22,5.5-7.34-.66-10.8-5.01-10.8-6.1,5.62-.86,9.94-4.63,10.44-5.02m-6.74-21.91c-5.8,0-10.33.84-12.78,2.37l-2.38,1.49,1.33,2.47.03.05c.89,1.65,2.94,6.52,3,16.37-.09.22-.21.52-.33.8-1.47,3.54-4.93,11.84-4.93,20.31,0,.8.07,7.84,2.35,9.67l.27.21.31.15c.34.17,1.15.55,16.47,1.77.95.08,1.89.12,2.75.12,8.05,0,10.2-3.69,10.2-5.88,0-4.49-1.81-10.61-4.73-12.67l-2.56-1.81-1.69,2.64c-.2.32-.35.65-.55,1.1-.78,1.77-2.47,5.64-6.94,7.42-2.17-3.8-3.42-8.8-3.75-14.93,2.35,2.1,6.07,3.93,10.76,4.35l.94.08.82-.47c2.16-1.24,2.73-5.84,2.73-8.1,0-4.21-1.29-6.48-2.38-7.65l-1.86-2.01-2.18,1.66s-.12.09-.21.17c-2.22,1.8-4.26,2.87-5.98,3.5,1.48-3.45,3.07-8.02,3.76-13.1,3.74,2.69,5.36,6.2,6.07,7.73.17.36.29.63.43.87l1.2,2.02,2.25-.68c3.19-.96,6.09-7.38,6.09-13.47,0-3.1-4.74-5.62-11.8-6.26-2.39-.21-4.65-.32-6.72-.32h0Z"/><path class="cls-1" d="m187.56,14.5c.71,0,1.45.07,2.2.2,7.63,1.39,13.32,7.86,13.32,21.11,0,15.19-6.08,27.97-16.02,27.97-.71,0-1.45-.07-2.2-.2-7.63-1.37-13.32-7.72-13.32-20.97,0-15.18,6.08-28.1,16.02-28.1m1.25,46.75c1.35,0,6.7-2.67,6.7-18.49,0-19.23-6.98-25.26-9.58-25.72-.04,0-.09-.01-.14-.01-1.36,0-6.7,2.71-6.7,18.53,0,19.22,6.98,25.21,9.58,25.69.04,0,.08.01.14.01m-1.25-49.75h0c-11.2,0-19.02,12.79-19.02,31.1,0,6.92,1.46,12.52,4.34,16.65,2.71,3.9,6.67,6.41,11.46,7.27.91.16,1.83.25,2.73.25,11.2,0,19.02-12.73,19.02-30.97,0-6.92-1.46-12.54-4.33-16.7-2.72-3.94-6.68-6.48-11.45-7.35-.92-.17-1.84-.25-2.74-.25h0Zm1.24,46.58c-1.91-1.19-6.7-6.99-6.7-22.53,0-10.34,2.46-14.38,3.73-15.36,1.87,1.17,6.69,6.96,6.69,22.57,0,10.32-2.45,14.34-3.71,15.32h0Z"/><path class="cls-1" d="m214.22,19.19c1.07,0,2.27.11,3.62.36.22.11,1.08.92,1.3,1.17h0s.36.79.36,2.8c0,4.1-1.22,8.42-2.66,12.04,5.96-8.58,12.34-13.9,12.6-13.9,0,0,0,0,0,0,5.98,1.08,9.87,3.54,10.08,3.8,0,0,.36.57.36,1.72,0,9.65-6.84,20.48-6.84,21.12,0,15.34,5.04,21.27,5.54,21.86-.77.64-3.56,1.34-6.47,1.34-.9,0-1.81-.07-2.67-.22-.22-.11-1.08-.92-1.3-1.17-.58-1.26-1.15-3.23-1.15-7.05,0-9.86,5.26-19.28,5.26-19.94,0-7.92-1.3-13.12-2.3-15.97-3.74.92-12.1,10.18-17.21,17.22,0,15.55,5.04,21.53,5.54,22.13-.75.62-3.52,1.26-6.4,1.26-.97,0-1.96-.07-2.89-.25-.22-.11-1.08-.92-1.3-1.18-.58-1.26-1.15-3.24-1.15-7.06,0-9.86,5.26-18.75,5.26-18.82,0-13.9-2.95-18.98-3.38-19.86,1.29-.74,3.13-1.41,5.81-1.41m0-3c-2.76,0-5.22.61-7.31,1.81l-2.45,1.41,1.25,2.53.09.18c1.86,3.62,2.91,9.86,2.98,17.6-1.77,3.4-5.25,11.13-5.25,19.56,0,3.54.45,6.18,1.42,8.3l.17.37.26.31s1.29,1.43,2.21,1.91l.4.21.44.08c1.06.2,2.21.3,3.44.3,2.2,0,6.43-.41,8.3-1.93l2.36-1.93-1.97-2.33c-.48-.57-4.63-5.87-4.83-19.22,4.4-5.93,9.28-11.14,12.37-13.67.6,2.69,1.1,6.29,1.13,10.94-.09.2-.21.47-.31.72-1.48,3.36-4.94,11.24-4.94,19.71,0,3.54.45,6.18,1.43,8.3l.17.37.27.31s1.3,1.42,2.2,1.89l.4.21.45.08c1,.18,2.07.27,3.21.27,2.86,0,6.7-.64,8.39-2.03l2.35-1.95-1.99-2.32c-.49-.57-4.7-5.87-4.82-19.31.12-.23.27-.53.41-.81,1.92-3.74,6.43-12.51,6.43-20.91,0-2.33-.78-3.66-1.79-4.28-1.76-1.28-5.97-3.26-11.12-4.19l-.26-.05h-.27c-.93,0-1.73,0-6.3,4.62-.2.21-.42.43-.64.66,0-.14,0-.28,0-.42,0-1.21,0-3.95-1.49-5.18-.46-.46-1.2-1.16-1.79-1.46l-.39-.2-.44-.08c-1.46-.27-2.86-.41-4.16-.41h0Z"/><path class="cls-1" d="m252.05,26.27c2.73,0,6.32.26,10.94.94,6.84.99,9.07,3.19,9.07,3.63,0,5.91-2.88,10.2-3.96,10.48-.58-1.02-3.1-8.53-11.74-12.59-.07,11.95-6.84,21.75-6.84,22.39,0,13.11,3.67,19.6,5.54,22.34,8.57-1.19,10.73-8.85,11.3-9.7,1.66,1.24,3.46,6.09,3.46,10.34,0,.53-.99,2.59-6.02,2.59-1.05,0-2.27-.09-3.7-.3-11.28-1.71-15.32-2.96-15.41-2.96h0c-.29-.27-1.22-3.09-1.22-7.48,0-9.86,5.26-19.35,5.26-20.01,0-12.24-2.95-17.84-3.38-18.71,1.02-.53,3.13-.97,6.7-.97m11.23,19.56c.22.25,1.58,1.74,1.58,5.7,0,3.31-1.01,5.33-1.22,5.44-7.34-1.07-10.8-5.83-10.8-6.9,5.62-.33,9.94-3.88,10.44-4.24m-11.23-22.56c-3.69,0-6.41.44-8.09,1.31l-2.62,1.36,1.32,2.64.04.07c.9,1.79,2.96,6.96,3.03,16.8-.09.21-.21.48-.32.73-1.48,3.38-4.94,11.3-4.94,19.77,0,2.65.46,8.09,2.19,9.69l.86.79h.79c3.55.93,8.84,1.94,15.34,2.93,1.5.22,2.89.33,4.15.33,2.76,0,4.96-.54,6.56-1.6,1.54-1.02,2.47-2.52,2.47-3.99,0-4.45-1.78-10.59-4.66-12.74l-2.51-1.88-1.77,2.59c-.23.34-.38.68-.59,1.15-.76,1.71-2.44,5.45-6.8,6.84-2.54-4.58-3.53-10.17-3.85-15.02,2.32,2.21,5.97,4.22,10.55,4.89l.96.14.86-.44c2.25-1.17,2.84-5.81,2.84-8.1,0-4.15-1.26-6.46-2.32-7.67l-1.79-2.04-2.22,1.56s-.13.09-.23.17c-2.34,1.77-4.47,2.68-6.22,3.13,1.5-3.3,3.15-7.76,3.88-12.84,3.79,2.99,5.4,6.57,6.11,8.13.16.34.27.59.4.82l1.13,2.01,2.24-.58c3.25-.84,6.21-7.22,6.21-13.39,0-2.99-4.57-5.58-11.64-6.6-4.37-.64-8.2-.97-11.37-.97h0Z"/><path class="cls-1" d="m330.45,32.68c7.52,0,13.1,5.04,13.1,18.17,0,16.24-6.98,31.62-18.21,31.62h-.01c-7.63-.02-13.32-5.7-13.32-18.94,0-16.3,6.98-30.71,18.22-30.84.07,0,.15,0,.22,0m-1.35,46.75s.03,0,.04,0h0c1.09,0,6.84-3.46,6.84-19.88,0-19.21-6.99-23.79-9.58-23.82-1.08.02-6.84,3.26-6.84,19.67,0,19.14,6.91,24.03,9.53,24.03m1.35-49.75h-.27c-12.27.14-21.18,14.37-21.18,33.84,0,13.72,6.1,21.92,16.31,21.94,13.79,0,21.22-17.83,21.22-34.62,0-6.92-1.48-12.27-4.39-15.89-2.78-3.46-6.83-5.28-11.71-5.28h0Zm-1.67,46.61c-1.74-.87-6.22-5.83-6.22-20.89,0-11.96,3.13-15.64,4.18-16.53,1.77.86,6.24,5.72,6.24,20.68,0,12.04-3.15,15.82-4.2,16.74h0Z"/><path class="cls-1" d="m375.11,28.49c2.95,0,4.72.46,4.87.58,0,0,.36.43.36,1.58,0,9.68-6.84,23.04-6.84,23.66,0,15.35,5.04,19.43,5.54,19.82-1.01,1.22-5.47,3.83-9.14,4.42-.22-.04-1.08-.55-1.3-.73-.58-1.06-1.15-2.85-1.15-6.66,0-9.85,5.26-21.08,5.26-21.75,0-7.92-1.3-12.66-2.3-15.16-3.74,2.25-12.1,14.18-17.21,22.62,0,15.57,5.04,20.08,5.54,20.51-1.01,1.13-5.62,3.37-9.29,3.66-.22-.05-1.08-.64-1.3-.83-.58-1.11-1.15-2.94-1.15-6.76,0-9.85,5.26-20.14,5.26-20.23,0-13.89-2.95-18.17-3.38-18.94,1.8-1.52,4.68-3.18,9.43-3.72.22.05,1.08.59,1.3.78,0,0,.36.68.36,2.69,0,4.1-1.22,8.79-2.66,12.84,5.98-10.36,12.38-17.89,12.6-17.93,1.99-.33,3.74-.44,5.21-.44m0-3h0c-1.84,0-3.76.16-5.7.48h-.05s-.05.02-.05.02c-1.02.2-1.53.3-5.96,6.24-.14.18-.28.37-.42.57-.09-1.48-.46-3.45-1.96-4.18-.53-.37-1.33-.85-2.03-1l-.49-.11-.49.06c-4.44.51-8.15,1.99-11.02,4.41l-1.91,1.61,1.23,2.17.11.18c1.81,3.05,2.83,8.94,2.88,16.62-2.04,4.43-5.25,12.71-5.25,20.88,0,3.6.47,6.18,1.49,8.14l.24.46.38.36s1.44,1.25,2.61,1.54l.47.12.48-.04c4.26-.33,9.67-2.82,11.3-4.66l2.04-2.29-2.34-1.99s-1.07-.93-2.14-3.46c-1.03-2.44-2.25-6.81-2.34-13.93,4.37-7.13,9.3-14.05,12.67-17.93.45,2.27.81,5.3.83,9.21-.09.26-.24.65-.38,1.01-1.46,3.83-4.87,12.79-4.87,21.16,0,3.61.48,6.19,1.51,8.09l.27.5.44.37s1.51,1.19,2.74,1.39l.48.08.48-.08c4.13-.66,9.39-3.54,10.98-5.47l1.99-2.41-2.49-1.89s-4.25-3.45-4.35-16.92c.12-.29.3-.71.47-1.1,1.9-4.4,6.37-14.71,6.37-23.06,0-1.92-.65-3-1.03-3.48l-.19-.23-.23-.19c-1.38-1.14-5.2-1.27-6.78-1.27h0Z"/><path class="cls-1" d="m410.38,19.42c1.54,0,2.15.39,2.15.63,0,5.91-2.88,11.65-3.96,12.45-.58-.77-3.1-6.94-11.74-7.11-.07,12.01-6.84,24.73-6.84,25.34,0,13.11,3.67,18.06,5.54,19.96,8.57-5.01,10.73-13.82,11.3-14.91,1.66.44,3.46,4.4,3.46,8.65,0,.61-1.44,4.3-9.72,6.92-11.3,3.41-15.34,3.58-15.41,3.67-.29-.15-1.22-2.6-1.22-6.99,0-9.84,5.26-21.47,5.26-22.14,0-12.24-2.95-16.62-3.38-17.32,1.8-1.69,6.98-4.34,17.64-7.74,3.28-1.08,5.5-1.41,6.92-1.41m-6.64,19.89c.22.15,1.58.99,1.58,4.95,0,3.31-1.01,5.81-1.22,6.02-1.85.6-3.46.84-4.83.84-4.04,0-5.97-2.07-5.97-2.86,5.62-2.75,9.94-8.36,10.44-8.95m6.64-22.89c-2.07,0-4.72.52-7.86,1.56-9.86,3.14-16.18,5.97-18.76,8.4l-1.78,1.68,1.29,2.08.05.08c.86,1.37,2.83,5.57,2.89,15.25-.1.27-.25.69-.39,1.07-1.46,3.93-4.86,13.13-4.86,21.48,0,2.46.28,8.32,2.84,9.65l2.09,1.08.83-.94c3.78-.58,8.73-1.78,14.74-3.59,11.72-3.71,11.85-9.55,11.85-9.8,0-4.93-2.12-10.6-5.68-11.55l-1.47-.39.07-.07c1.17-1.15,2.12-4.81,2.12-8.16,0-4.54-1.58-6.55-2.9-7.43l-2.22-1.49-1.75,2.03c-.04.05-.11.13-.2.25-1.71,2.1-3.32,3.7-4.76,4.92,1.38-3.98,2.71-8.82,3.17-13.78,3.82.97,5.33,3.57,6.05,4.82.16.28.29.5.45.72l1.79,2.4,2.41-1.79c2.06-1.53,5.17-8.23,5.17-14.86,0-.61-.25-3.63-5.15-3.63h0Zm-14.2,50.21c-1.92-3.16-3-8-3.17-14.22,1.56,1.02,3.71,1.71,6.27,1.71,1.74,0,3.59-.31,5.53-.91l-.62,1.17c-.17.33-.31.69-.51,1.23-.77,2.1-2.67,7.25-7.5,11.02h0Z"/><path class="cls-1" d="m149.58,23.76c4.21,0,7.62,3.41,7.62,7.62s-3.41,7.62-7.62,7.62-7.62-3.41-7.62-7.62,3.41-7.62,7.62-7.62m0-3c-5.86,0-10.62,4.77-10.62,10.62s4.77,10.62,10.62,10.62,10.62-4.77,10.62-10.62-4.77-10.62-10.62-10.62h0Z"/><path class="cls-1" d="m290.42,47.43c4.21,0,7.62,3.41,7.62,7.62s-3.41,7.62-7.62,7.62-7.62-3.41-7.62-7.62,3.41-7.62,7.62-7.62m0-3c-5.86,0-10.62,4.77-10.62,10.62s4.77,10.62,10.62,10.62,10.62-4.77,10.62-10.62-4.77-10.62-10.62-10.62h0Z"/></g></svg>