<?xml version="1.0" encoding="UTF-8"?><svg id="Layer_2" xmlns="http://www.w3.org/2000/svg" viewBox="0 0 16.06 16.06"><defs><style>.cls-1{fill:#fff;}</style></defs><g id="Layer_1-2"><path class="cls-1" d="M16.06,15l-4.12-4.12c.95-1.18,1.47-2.64,1.47-4.18,0-1.79-.7-3.48-1.96-4.74C8.83-.65,4.58-.65,1.96,1.96-.65,4.58-.65,8.83,1.96,11.45c1.31,1.31,3.02,1.96,4.74,1.96,1.48,0,2.96-.49,4.18-1.46l4.12,4.12,1.06-1.06ZM3.02,10.39C.99,8.36,.99,5.05,3.02,3.02c1.01-1.02,2.35-1.52,3.68-1.52s2.67,.51,3.68,1.52c.98,.98,1.53,2.29,1.53,3.68s-.54,2.7-1.53,3.68c-2.03,2.03-5.33,2.03-7.36,0Z"/></g></svg>