<svg xmlns="http://www.w3.org/2000/svg" width="69.497" height="69.498" viewBox="0 0 69.497 69.498">
  <g id="Group_104" data-name="Group 104" transform="translate(-629 -1020)">
    <g id="play" transform="translate(629 1020)">
      <g id="Group_102" data-name="Group 102">
        <path id="Path_69" data-name="Path 69" d="M34.749,66.023A31.274,31.274,0,1,0,3.475,34.749,31.274,31.274,0,0,0,34.749,66.023Zm0,3.475A34.749,34.749,0,1,0,0,34.749,34.749,34.749,0,0,0,34.749,69.5Z" fill="#ffffff" fill-rule="evenodd"/>
      </g>
      <g id="Group_103" data-name="Group 103" transform="translate(24.324 19.712)">
        <path id="Path_70" data-name="Path 70" d="M85.787,68.792,69.807,58.139V79.445Zm3.228-2.024a2.432,2.432,0,0,1,0,4.048l-18.9,12.6a2.433,2.433,0,0,1-3.782-2.024v-25.2a2.432,2.432,0,0,1,3.782-2.024Z" transform="translate(-66.332 -53.755)" fill="#ffffff" fill-rule="evenodd"/>
      </g>
    </g>
  </g>
</svg>
